{"accessors":[{"bufferView":0,"byteOffset":0,"componentType":5126,"count":4042,"max":[50.0,50.0,0.00019990500004496425],"min":[-88.71040344238281,-88.85179901123047,-250.03799438476563],"type":"VEC3"},{"bufferView":1,"byteOffset":0,"componentType":5126,"count":4042,"max":[1.0,1.0,1.0],"min":[-1.0,-1.0,-1.0],"type":"VEC3"},{"bufferView":2,"byteOffset":0,"componentType":5126,"count":4042,"max":[1.0,1.0],"min":[0.0,0.0],"type":"VEC2"},{"bufferView":3,"byteOffset":0,"componentType":5125,"count":159,"type":"SCALAR"},{"bufferView":4,"byteOffset":0,"componentType":5125,"count":681,"type":"SCALAR"},{"bufferView":5,"byteOffset":0,"componentType":5125,"count":10752,"type":"SCALAR"}],"asset":{"copyright":"KiM GmbH","generator":"CADClick","version":"2.0"},"bufferViews":[{"buffer":0,"byteLength":48504,"byteOffset":0},{"buffer":0,"byteLength":48504,"byteOffset":48504},{"buffer":0,"byteLength":32336,"byteOffset":97008},{"buffer":0,"byteLength":636,"byteOffset":129344},{"buffer":0,"byteLength":2724,"byteOffset":129980},{"buffer":0,"byteLength":43008,"byteOffset":132704}],"buffers":[{"byteLength":175712,"uri":"data:application/octet-stream;base64,"}],"materials":[{"alphaMode":"OPAQUE","doubleSided":true,"name":"M_dAA0000_0_0","pbrMetallicRoughness":{"baseColorFactor":[0.40197786688804626,0.0,0.0,1.0],"metallicFactor":1.0,"roughnessFactor":0.0}},{"alphaMode":"OPAQUE","doubleSided":true,"name":"M_dC0C0C0_0_0","pbrMetallicRoughness":{"baseColorFactor":[0.5271153450012207,0.5271153450012207,0.5271153450012207,1.0],"metallicFactor":1.0,"roughnessFactor":0.0}},{"alphaMode":"OPAQUE","doubleSided":true,"name":"M_d41464D_0_0","pbrMetallicRoughness":{"baseColorFactor":[0.05286065489053726,0.06124607101082802,0.07421357929706573,1.0],"metallicFactor":1.0,"roughnessFactor":0.0}}],"meshes":[{"primitives":[{"attributes":{"NORMAL":1,"POSITION":0,"TEXCOORD_0":2},"indices":3,"material":0,"mode":4},{"attributes":{"NORMAL":1,"POSITION":0,"TEXCOORD_0":2},"indices":4,"material":1,"mode":4},{"attributes":{"NORMAL":1,"POSITION":0,"TEXCOORD_0":2},"indices":5,"material":2,"mode":4}]}],"nodes":[{"children":[1]},{"mesh":0,"name":"00100688_202406100956180682_0001"}],"scene":0,"scenes":[{"name":"634_48_055_2","nodes":[0]}]}