# --------------------Vectorworks 2016 ------------------- #

mtllib handle.mtl

o Innenausbau/Konstruktion
v 15.15 -23.6825 714.197
v 0 -23.6825 714.197
v 0 -23.6825 159.197
v 15.15 -23.6825 159.197
v 15.15 -23.6825 159.197
v 0 -23.6825 159.197
v 0 -24.488 124.511
v 15.15 -25.9959 100.417
v 0 -28.0419 83.098
v 15.15 -28.0403 83.1135
v 0 -39.1287 7.70072
v 15.15 -39.1287 7.70072
v 15.15 -32.9173 41.8357
v 0 -29.5316 65.7381
v 15.15 -9.36571 0.0577934
v 0 -11.8727 0.307435
v 0 1.12082 1.63457
v 15.15 3.65942 2.63453
v 15.15 -11.8099 0.307435
v 0 -14.3168 0.0577934
v 15.15 -24.8033 1.63457
v 0 -27.3419 2.63453
v 15.15 -39.1287 7.70072
v 0 -39.1287 7.70072
v 0 -29.4068 3.04302
v 15.15 -27.2646 2.67679
v -5.68434e-14 15.4462 7.70072
v 15.15 15.4462 7.70072
v 15.15 5.72429 3.04302
v 0 3.58205 2.67679
v 15.15 15.4462 7.70072
v -5.68434e-14 15.4462 7.70072
v 0 9.23482 41.8357
v 15.15 5.84913 65.7381
v 0 4.35777 83.1135
v 15.15 4.35936 83.098
v 0 -7.10543e-15 159.197
v 15.15 -3.55271e-15 159.197
v 15.15 0.80547 124.511
v 0 2.31336 100.417
v 15.15 -3.55271e-15 159.197
v 0 -7.10543e-15 159.197
v 0 3.19744e-14 683.856
v 15.15 3.90799e-14 683.856
v 15.15 12.1597 712.109
v 0 12.1316 712.143
v 0 17.1176 717.02
v -5.68434e-14 21.0984 718.963
v 15.15 21.0654 719.024
v 15.15 17.6373 717.383
v 15.15 8.05407 708.156
v 15.15 5.40179 703.106
v 0 5.44312 703.089
v 0 8.05407 708.156
v 15.15 2.15859 696.932
v 15.15 1.43709 692.561
v 0 1.36988 692.576
v 0 1.9597 696.33
v 0 3.19744e-14 683.856
v -1.13687e-13 29.0275 722.835
v 15.15 29.0275 722.835
v 15.15 3.90799e-14 683.856
v -5.68434e-14 38.9888 761.556
v -5.68434e-14 43.2299 755.609
v -5.68434e-14 45.4251 748.642
v -5.68434e-14 45.3595 741.338
v 0 -29.5316 65.7381
v 0 -11.8727 0.307435
v 0 -14.3168 0.0577934
v 0 -27.3419 2.63453
v -1.13687e-13 38.6924 728.542
v -5.68434e-14 26.1901 768.219
v -5.68434e-14 33.1172 765.901
v 0 3.58205 2.67679
v 0 1.12082 1.63457
v -1.13687e-13 43.0396 734.412
v 0 -28.0419 83.098
v 0 2.31336 100.417
v 0 4.35777 83.1135
v 0 9.23482 41.8357
v -5.68434e-14 15.4462 7.70072
v 0 -23.6825 159.197
v 0 -23.6825 714.197
v 0 3.19744e-14 683.856
v 0 -7.10543e-15 159.197
v -1.13687e-13 32.7437 724.303
v 0 -29.4068 3.04302
v 0 -39.1287 7.70072
v 0 -24.488 124.511
v -1.13687e-13 29.0275 722.835
v -5.68434e-14 22.2071 768.538
v 0 1.9597 696.33
v 0 1.36988 692.576
v -5.68434e-14 3.72123 763.805
v -5.68434e-14 13.3575 767.478
v -5.68434e-14 21.0984 718.963
v 0 -21.5551 729.944
v 0 8.05407 708.156
v 0 5.44312 703.089
v 0 -13.9924 746.695
v 0 -3.58858 758.706
v 0 17.1176 717.02
v 0 12.1316 712.143
v 15.15 38.9888 761.556
v 15.15 38.6924 728.542
v 15.15 43.0396 734.412
v 15.15 45.3595 741.338
v 15.15 45.4251 748.642
v 15.15 43.2299 755.609
v 15.15 26.1901 768.219
v 15.15 32.7437 724.303
v 15.15 -3.55271e-15 159.197
v 15.15 3.90799e-14 683.856
v 15.15 -23.6825 714.197
v 15.15 -23.6825 159.197
v 15.15 29.0275 722.835
v 15.15 4.35936 83.098
v 15.15 -25.9959 100.417
v 15.15 -28.0403 83.1135
v 15.15 0.80547 124.511
v 15.15 5.84913 65.7381
v 15.15 -11.8099 0.307435
v 15.15 -9.36571 0.0577934
v 15.15 3.65942 2.63453
v 15.15 -32.9173 41.8357
v 15.15 -39.1287 7.70072
v 15.15 -27.2646 2.67679
v 15.15 33.1172 765.901
v 15.15 -24.8033 1.63457
v 15.15 22.2071 768.538
v 15.15 3.72123 763.805
v 15.15 -3.58858 758.706
v 15.15 17.6373 717.383
v 15.15 21.0654 719.024
v 15.15 -13.9179 746.632
v 15.15 12.1597 712.109
v 15.15 -14.3936 746.076
v 15.15 -21.2418 731.044
v 15.15 1.43709 692.561
v 15.15 5.72429 3.04302
v 15.15 15.4462 7.70072
v 15.15 13.3575 767.478
v 15.15 -21.4095 729.922
v 15.15 8.05407 708.156
v 15.15 -23.6801 714.739
v 15.15 2.15859 696.932
v 15.15 5.40179 703.106
v 0 -13.9924 746.695
v 0 -21.5551 729.944
v 15.15 -21.2418 731.044
v 15.15 -21.4095 729.922
v 15.15 -14.3936 746.076
v 15.15 -13.9179 746.632
v 15.15 -3.58858 758.706
v 0 -23.6825 714.197
v 15.15 -23.6801 714.739
v 15.15 -23.6825 714.197
v 0 -3.58858 758.706
v 15.15 22.2071 768.538
v 15.15 26.1901 768.219
v -5.68434e-14 26.1901 768.219
v -5.68434e-14 22.2071 768.538
v -1.13687e-13 29.0275 722.835
v -1.13687e-13 32.7437 724.303
v 15.15 32.7437 724.303
v 15.15 29.0275 722.835
v -1.13687e-13 38.6924 728.542
v 15.15 38.6924 728.542
v -1.13687e-13 43.0396 734.412
v 15.15 43.0396 734.412
v -5.68434e-14 45.3595 741.338
v 15.15 45.3595 741.338
v -5.68434e-14 45.4251 748.642
v 15.15 45.4251 748.642
v -5.68434e-14 43.2299 755.609
v 15.15 43.2299 755.609
v -5.68434e-14 38.9888 761.556
v 15.15 38.9888 761.556
v -5.68434e-14 33.1172 765.901
v 15.15 33.1172 765.901
v 15.15 -3.58858 758.706
v 15.15 3.72123 763.805
v -5.68434e-14 3.72123 763.805
v 0 -3.58858 758.706
v -5.68434e-14 22.2071 768.538
v -5.68434e-14 13.3575 767.478
v 15.15 13.3575 767.478
v 15.15 22.2071 768.538
vn 0 -1 0
vn 0 -1 0
vn 0 -1 0
vn 0 -1 0
vn -4.62187e-17 -1 1.2325e-10
vn -4.62187e-17 -1 1.2325e-10
vn -4.333e-17 -0.998932 0.0462079
vn -4.26079e-17 -0.996929 0.0783055
vn -4.04414e-17 -0.994841 0.101442
vn -4.11635e-17 -0.994844 0.101422
vn -3.75527e-17 -0.979423 0.201818
vn -3.57473e-17 -0.979423 0.201818
vn -3.82749e-17 -0.987703 0.156345
vn -4.04414e-17 -0.992219 0.124504
vn 9.03556e-16 0.0474264 -0.998875
vn 9.13942e-16 -0.00060515 -1
vn 8.30856e-16 0.248328 -0.968676
vn 8.04892e-16 0.298493 -0.954412
vn 9.13942e-16 0.00060515 -1
vn 9.13942e-16 -0.0474264 -0.998875
vn 9.39906e-16 -0.248328 -0.968676
vn 9.55484e-16 -0.298493 -0.954412
vn 8.9317e-16 -0.52278 -0.852468
vn 9.13942e-16 -0.52278 -0.852468
vn 9.55484e-16 -0.336516 -0.941678
vn 9.39906e-16 -0.297367 -0.954763
vn 6.64685e-16 0.52278 -0.852468
vn 6.64685e-16 0.52278 -0.852468
vn 7.89313e-16 0.336516 -0.941678
vn 7.89313e-16 0.297367 -0.954763
vn -4.62187e-17 0.979423 0.201818
vn -4.62187e-17 0.979423 0.201818
vn -4.333e-17 0.987703 0.156345
vn -4.26079e-17 0.992219 0.124504
vn -4.04414e-17 0.994844 0.101422
vn -4.11635e-17 0.994841 0.101442
vn -3.4664e-17 1 -1.10772e-10
vn -3.61084e-17 1 -1.10772e-10
vn -3.82749e-17 0.998932 0.0462079
vn -3.75527e-17 0.996929 0.0783055
vn 0 1 0
vn 0 1 0
vn 0 1 0
vn 0 1 0
vn -6.66217e-18 0.710488 -0.703709
vn 0 0.710402 -0.703796
vn 2.1319e-16 0.579263 -0.815141
vn 3.19784e-16 0.487205 -0.873288
vn 3.33109e-16 0.487194 -0.873294
vn 2.1319e-16 0.566492 -0.824067
vn -1.79879e-16 0.802038 -0.597273
vn -3.39771e-16 0.877838 -0.478957
vn -3.19784e-16 0.87778 -0.479064
vn -1.59892e-16 0.802038 -0.597273
vn -5.32974e-16 0.946939 -0.321412
vn -6.46231e-16 0.976271 -0.216553
vn -6.92866e-16 0.976274 -0.216541
vn -5.32974e-16 0.951832 -0.306619
vn -8.52758e-16 1 -1.74806e-10
vn 5.32974e-16 0.286531 -0.958071
vn 5.72947e-16 0.286531 -0.958071
vn -8.52758e-16 1 -1.74805e-10
vn -1 0 0
vn -1 0 0
vn -1 0 0
vn -1 0 0
vn -1 0 0
vn -1 0 0
vn -1 0 0
vn -1 0 0
vn -1 0 0
vn -1 0 0
vn -1 0 0
vn -1 0 0
vn -1 0 0
vn -1 0 0
vn -1 0 0
vn -1 0 0
vn -1 0 0
vn -1 0 0
vn -1 0 0
vn -1 0 0
vn -1 0 0
vn -1 0 0
vn -1 0 0
vn -1 0 0
vn -1 0 0
vn -1 0 0
vn -1 0 0
vn -1 0 0
vn -1 0 0
vn -1 0 0
vn -1 0 0
vn -1 0 0
vn -1 0 0
vn -1 0 0
vn -1 0 0
vn -1 0 0
vn -1 0 0
vn -1 0 0
vn -1 0 0
vn -1 0 0
vn -1 0 0
vn 1 0 0
vn 1 0 0
vn 1 0 0
vn 1 0 0
vn 1 0 0
vn 1 0 0
vn 1 0 0
vn 1 0 0
vn 1 0 0
vn 1 0 0
vn 1 0 0
vn 1 0 0
vn 1 0 0
vn 1 0 0
vn 1 0 0
vn 1 0 0
vn 1 0 0
vn 1 0 0
vn 1 0 0
vn 1 0 0
vn 1 0 0
vn 1 0 0
vn 1 0 0
vn 1 0 0
vn 1 0 0
vn 1 0 0
vn 1 0 0
vn 1 0 0
vn 1 0 0
vn 1 0 0
vn 1 0 0
vn 1 0 0
vn 1 0 0
vn 1 0 0
vn 1 0 0
vn 1 0 0
vn 1 0 0
vn 1 0 0
vn 1 0 0
vn 1 0 0
vn 1 0 0
vn 1 0 0
vn 1 0 0
vn 1 0 0
vn 8.03908e-16 -0.836704 0.547655
vn 6.94284e-16 -0.96415 0.265359
vn 7.26258e-16 -0.958857 0.283891
vn 7.17122e-16 -0.964071 0.265646
vn 8.08475e-16 -0.843453 0.537203
vn 8.08475e-16 -0.83682 0.547478
vn 8.26746e-16 -0.661383 0.750048
vn 5.8466e-16 -1 -2.66727e-10
vn 5.89228e-16 -0.999958 0.00914378
vn 5.8466e-16 -1 -2.66729e-10
vn 8.40449e-16 -0.661383 0.750048
vn 1.4864e-15 -0.00567096 0.999984
vn 1.71865e-15 0.164971 0.986298
vn 1.7651e-15 0.164971 0.986298
vn 1.4864e-15 -0.00567096 0.999984
vn -9.29001e-16 0.286531 -0.958071
vn -6.503e-16 0.445742 -0.895161
vn -6.73525e-16 0.445742 -0.895161
vn -1.01029e-15 0.286531 -0.958071
vn 0 0.700598 -0.713556
vn -3.48375e-17 0.700598 -0.713556
vn 6.503e-16 0.886843 -0.46207
vn 6.27075e-16 0.886843 -0.46207
vn 1.2077e-15 0.986238 -0.165333
vn 1.21931e-15 0.986238 -0.165333
vn 1.6722e-15 0.989048 0.147596
vn 1.68381e-15 0.989048 0.147596
vn 1.9509e-15 0.894998 0.44607
vn 1.98574e-15 0.894998 0.44607
vn 2.0438e-15 0.713299 0.70086
vn 2.10186e-15 0.713299 0.70086
vn 1.9509e-15 0.461745 0.887013
vn 2.00896e-15 0.461745 0.887013
vn 8.81913e-16 -0.661383 0.750048
vn 1.06105e-15 -0.475572 0.879677
vn 1.04727e-15 -0.475572 0.879677
vn 8.81913e-16 -0.661383 0.750048
vn 1.26775e-15 -0.00567096 0.999984
vn 1.21263e-15 -0.230623 0.973043
vn 1.19196e-15 -0.230623 0.973043
vn 1.24708e-15 -0.00567096 0.999984
vn 0 1 -0
vn 0 1 -0
vn 0 1 -0
vn 0 1 -0
vn 4.62187e-17 1 -1.2325e-10
vn 4.62187e-17 1 -1.2325e-10
vn 4.333e-17 0.998932 -0.0462079
vn 4.26079e-17 0.996929 -0.0783055
vn 4.04414e-17 0.994841 -0.101442
vn 4.11635e-17 0.994844 -0.101422
vn 3.75527e-17 0.979423 -0.201818
vn 3.57473e-17 0.979423 -0.201818
vn 3.82749e-17 0.987703 -0.156345
vn 4.04414e-17 0.992219 -0.124504
vn -9.03556e-16 -0.0474264 0.998875
vn -9.13942e-16 0.00060515 1
vn -8.30856e-16 -0.248328 0.968676
vn -8.04892e-16 -0.298493 0.954412
vn -9.13942e-16 -0.00060515 1
vn -9.13942e-16 0.0474264 0.998875
vn -9.39906e-16 0.248328 0.968676
vn -9.55484e-16 0.298493 0.954412
vn -8.9317e-16 0.52278 0.852468
vn -9.13942e-16 0.52278 0.852468
vn -9.55484e-16 0.336516 0.941678
vn -9.39906e-16 0.297367 0.954763
vn -6.64685e-16 -0.52278 0.852468
vn -6.64685e-16 -0.52278 0.852468
vn -7.89313e-16 -0.336516 0.941678
vn -7.89313e-16 -0.297367 0.954763
vn 4.62187e-17 -0.979423 -0.201818
vn 4.62187e-17 -0.979423 -0.201818
vn 4.333e-17 -0.987703 -0.156345
vn 4.26079e-17 -0.992219 -0.124504
vn 4.04414e-17 -0.994844 -0.101422
vn 4.11635e-17 -0.994841 -0.101442
vn 3.4664e-17 -1 1.10772e-10
vn 3.61084e-17 -1 1.10772e-10
vn 3.82749e-17 -0.998932 -0.0462079
vn 3.75527e-17 -0.996929 -0.0783055
vn 0 -1 -0
vn 0 -1 -0
vn 0 -1 -0
vn 0 -1 -0
vn 6.66217e-18 -0.710488 0.703709
vn 0 -0.710402 0.703796
vn -2.1319e-16 -0.579263 0.815141
vn -3.19784e-16 -0.487205 0.873288
vn -3.33109e-16 -0.487194 0.873294
vn -2.1319e-16 -0.566492 0.824067
vn 1.79879e-16 -0.802038 0.597273
vn 3.39771e-16 -0.877838 0.478957
vn 3.19784e-16 -0.87778 0.479064
vn 1.59892e-16 -0.802038 0.597273
vn 5.32974e-16 -0.946939 0.321412
vn 6.46231e-16 -0.976271 0.216553
vn 6.92866e-16 -0.976274 0.216541
vn 5.32974e-16 -0.951832 0.306619
vn 8.52758e-16 -1 1.74806e-10
vn -5.32974e-16 -0.286531 0.958071
vn -5.72947e-16 -0.286531 0.958071
vn 8.52758e-16 -1 1.74805e-10
vn 1 -0 -0
vn 1 -0 -0
vn 1 -0 -0
vn 1 -0 -0
vn 1 -0 -0
vn 1 -0 -0
vn 1 -0 -0
vn 1 -0 -0
vn 1 -0 -0
vn 1 -0 -0
vn 1 -0 -0
vn 1 -0 -0
vn 1 -0 -0
vn 1 -0 -0
vn 1 -0 -0
vn 1 -0 -0
vn 1 -0 -0
vn 1 -0 -0
vn 1 -0 -0
vn 1 -0 -0
vn 1 -0 -0
vn 1 -0 -0
vn 1 -0 -0
vn 1 -0 -0
vn 1 -0 -0
vn 1 -0 -0
vn 1 -0 -0
vn 1 -0 -0
vn 1 -0 -0
vn 1 -0 -0
vn 1 -0 -0
vn 1 -0 -0
vn 1 -0 -0
vn 1 -0 -0
vn 1 -0 -0
vn 1 -0 -0
vn 1 -0 -0
vn 1 -0 -0
vn 1 -0 -0
vn 1 -0 -0
vn 1 -0 -0
vn -1 -0 -0
vn -1 -0 -0
vn -1 -0 -0
vn -1 -0 -0
vn -1 -0 -0
vn -1 -0 -0
vn -1 -0 -0
vn -1 -0 -0
vn -1 -0 -0
vn -1 -0 -0
vn -1 -0 -0
vn -1 -0 -0
vn -1 -0 -0
vn -1 -0 -0
vn -1 -0 -0
vn -1 -0 -0
vn -1 -0 -0
vn -1 -0 -0
vn -1 -0 -0
vn -1 -0 -0
vn -1 -0 -0
vn -1 -0 -0
vn -1 -0 -0
vn -1 -0 -0
vn -1 -0 -0
vn -1 -0 -0
vn -1 -0 -0
vn -1 -0 -0
vn -1 -0 -0
vn -1 -0 -0
vn -1 -0 -0
vn -1 -0 -0
vn -1 -0 -0
vn -1 -0 -0
vn -1 -0 -0
vn -1 -0 -0
vn -1 -0 -0
vn -1 -0 -0
vn -1 -0 -0
vn -1 -0 -0
vn -1 -0 -0
vn -1 -0 -0
vn -1 -0 -0
vn -1 -0 -0
vn -8.03908e-16 0.836704 -0.547655
vn -6.94284e-16 0.96415 -0.265359
vn -7.26258e-16 0.958857 -0.283891
vn -7.17122e-16 0.964071 -0.265646
vn -8.08475e-16 0.843453 -0.537203
vn -8.08475e-16 0.83682 -0.547478
vn -8.26746e-16 0.661383 -0.750048
vn -5.8466e-16 1 2.66727e-10
vn -5.89228e-16 0.999958 -0.00914378
vn -5.8466e-16 1 2.66729e-10
vn -8.40449e-16 0.661383 -0.750048
vn -1.4864e-15 0.00567096 -0.999984
vn -1.71865e-15 -0.164971 -0.986298
vn -1.7651e-15 -0.164971 -0.986298
vn -1.4864e-15 0.00567096 -0.999984
vn 9.29001e-16 -0.286531 0.958071
vn 6.503e-16 -0.445742 0.895161
vn 6.73525e-16 -0.445742 0.895161
vn 1.01029e-15 -0.286531 0.958071
vn 0 -0.700598 0.713556
vn 3.48375e-17 -0.700598 0.713556
vn -6.503e-16 -0.886843 0.46207
vn -6.27075e-16 -0.886843 0.46207
vn -1.2077e-15 -0.986238 0.165333
vn -1.21931e-15 -0.986238 0.165333
vn -1.6722e-15 -0.989048 -0.147596
vn -1.68381e-15 -0.989048 -0.147596
vn -1.9509e-15 -0.894998 -0.44607
vn -1.98574e-15 -0.894998 -0.44607
vn -2.0438e-15 -0.713299 -0.70086
vn -2.10186e-15 -0.713299 -0.70086
vn -1.9509e-15 -0.461745 -0.887013
vn -2.00896e-15 -0.461745 -0.887013
vn -8.81913e-16 0.661383 -0.750048
vn -1.06105e-15 0.475572 -0.879677
vn -1.04727e-15 0.475572 -0.879677
vn -8.81913e-16 0.661383 -0.750048
vn -1.26775e-15 0.00567096 -0.999984
vn -1.21263e-15 0.230623 -0.973043
vn -1.19196e-15 0.230623 -0.973043
vn -1.24708e-15 0.00567096 -0.999984
usemtl Material_1
f 1//1 2//2 3//3
f 1//189 3//191 2//190
f 1//1 3//3 4//4
f 1//189 4//192 3//191
f 5//5 6//6 7//7
f 5//193 7//195 6//194
f 7//7 8//8 5//5
f 7//195 5//193 8//196
f 9//9 10//10 8//8
f 9//197 8//196 10//198
f 11//11 12//12 13//13
f 11//199 13//201 12//200
f 13//13 14//14 11//11
f 13//201 11//199 14//202
f 10//10 9//9 14//14
f 10//198 14//202 9//197
f 13//13 10//10 14//14
f 13//201 14//202 10//198
f 7//7 9//9 8//8
f 7//195 8//196 9//197
f 15//15 16//16 17//17
f 15//203 17//205 16//204
f 17//17 18//18 15//15
f 17//205 15//203 18//206
f 15//15 19//19 16//16
f 15//203 16//204 19//207
f 20//20 19//19 21//21
f 20//208 21//209 19//207
f 21//21 22//22 20//20
f 21//209 20//208 22//210
f 20//20 16//16 19//19
f 20//208 19//207 16//204
f 23//23 24//24 25//25
f 23//211 25//213 24//212
f 25//25 26//26 23//23
f 25//213 23//211 26//214
f 27//27 28//28 29//29
f 27//215 29//217 28//216
f 29//29 30//30 27//27
f 29//217 27//215 30//218
f 29//29 18//18 30//30
f 29//217 30//218 18//206
f 25//25 22//22 26//26
f 25//213 26//214 22//210
f 21//21 26//26 22//22
f 21//209 22//210 26//214
f 17//17 30//30 18//18
f 17//205 18//206 30//218
f 31//31 32//32 33//33
f 31//219 33//221 32//220
f 33//33 34//34 31//31
f 33//221 31//219 34//222
f 35//35 36//36 34//34
f 35//223 34//222 36//224
f 37//37 38//38 39//39
f 37//225 39//227 38//226
f 39//39 40//40 37//37
f 39//227 37//225 40//228
f 36//36 35//35 40//40
f 36//224 40//228 35//223
f 39//39 36//36 40//40
f 39//227 40//228 36//224
f 33//33 35//35 34//34
f 33//221 34//222 35//223
f 41//41 42//42 43//43
f 41//229 43//231 42//230
f 41//41 43//43 44//44
f 41//229 44//232 43//231
f 45//45 46//46 47//47
f 45//233 47//235 46//234
f 48//48 49//49 50//50
f 48//236 50//238 49//237
f 50//50 47//47 48//48
f 50//238 48//236 47//235
f 51//51 52//52 53//53
f 51//239 53//241 52//240
f 54//54 46//46 45//45
f 54//242 45//233 46//234
f 45//45 51//51 54//54
f 45//233 54//242 51//239
f 53//53 52//52 55//55
f 53//241 55//243 52//240
f 56//56 57//57 58//58
f 56//244 58//246 57//245
f 58//58 55//55 56//56
f 58//246 56//244 55//243
f 59//59 57//57 56//56
f 59//247 56//244 57//245
f 48//48 60//60 61//61
f 48//236 61//249 60//248
f 61//61 49//49 48//48
f 61//249 48//236 49//237
f 56//56 62//62 59//59
f 56//244 59//247 62//250
f 55//55 58//58 53//53
f 55//243 53//241 58//246
f 53//53 54//54 51//51
f 53//241 51//239 54//242
f 47//47 50//50 45//45
f 47//235 45//233 50//238
f 63//63 64//64 65//65
f 63//251 65//253 64//252
f 63//63 65//65 66//66
f 63//251 66//254 65//253
f 67//67 68//68 69//69
f 67//255 69//257 68//256
f 67//67 69//69 70//70
f 67//255 70//258 69//257
f 71//71 72//72 73//73
f 71//259 73//261 72//260
f 71//71 73//73 63//63
f 71//259 63//251 73//261
f 67//67 74//74 75//75
f 67//255 75//263 74//262
f 67//67 75//75 68//68
f 67//255 68//256 75//263
f 66//66 76//76 71//71
f 66//254 71//259 76//264
f 66//66 71//71 63//63
f 66//254 63//251 71//259
f 77//77 78//78 79//79
f 77//265 79//267 78//266
f 67//67 80//80 81//81
f 67//255 81//269 80//268
f 67//67 81//81 74//74
f 67//255 74//262 81//269
f 82//82 83//83 84//84
f 82//270 84//272 83//271
f 82//82 84//84 85//85
f 82//270 85//273 84//272
f 71//71 86//86 72//72
f 71//259 72//260 86//274
f 70//70 87//87 88//88
f 70//258 88//276 87//275
f 70//70 88//88 67//67
f 70//258 67//255 88//276
f 78//78 77//77 89//89
f 78//266 89//277 77//265
f 90//90 91//91 72//72
f 90//278 72//260 91//279
f 85//85 78//78 89//89
f 85//273 89//277 78//266
f 85//85 89//89 82//82
f 85//273 82//270 89//277
f 83//83 92//92 93//93
f 83//271 93//281 92//280
f 94//94 95//95 90//90
f 94//282 90//278 95//283
f 94//94 90//90 96//96
f 94//282 96//284 90//278
f 90//90 95//95 91//91
f 90//278 91//279 95//283
f 93//93 84//84 83//83
f 93//281 83//271 84//272
f 83//83 97//97 98//98
f 83//271 98//286 97//285
f 83//83 98//98 99//99
f 83//271 99//287 98//286
f 100//100 101//101 102//102
f 100//288 102//290 101//289
f 100//100 102//102 103//103
f 100//288 103//291 102//290
f 86//86 90//90 72//72
f 86//274 72//260 90//278
f 99//99 92//92 83//83
f 99//287 83//271 92//280
f 96//96 102//102 101//101
f 96//284 101//289 102//290
f 96//96 101//101 94//94
f 96//284 94//282 101//289
f 103//103 98//98 97//97
f 103//291 97//285 98//286
f 103//103 97//97 100//100
f 103//291 100//288 97//285
f 79//79 80//80 67//67
f 79//267 67//255 80//268
f 79//79 67//67 77//77
f 79//267 77//265 67//255
f 104//104 105//105 106//106
f 104//292 106//294 105//293
f 104//104 106//106 107//107
f 104//292 107//295 106//294
f 107//107 108//108 109//109
f 107//295 109//297 108//296
f 107//107 109//109 104//104
f 107//295 104//292 109//297
f 110//110 111//111 105//105
f 110//298 105//293 111//299
f 112//112 113//113 114//114
f 112//300 114//302 113//301
f 112//112 114//114 115//115
f 112//300 115//303 114//302
f 110//110 116//116 111//111
f 110//298 111//299 116//304
f 117//117 118//118 119//119
f 117//305 119//307 118//306
f 118//118 117//117 120//120
f 118//306 120//308 117//305
f 121//121 122//122 123//123
f 121//309 123//311 122//310
f 121//121 123//123 124//124
f 121//309 124//312 123//311
f 121//121 125//125 126//126
f 121//309 126//314 125//313
f 121//121 126//126 127//127
f 121//309 127//315 126//314
f 104//104 128//128 110//110
f 104//292 110//298 128//316
f 104//104 110//110 105//105
f 104//292 105//293 110//298
f 115//115 118//118 120//120
f 115//303 120//308 118//306
f 115//115 120//120 112//112
f 115//303 112//300 120//308
f 127//127 129//129 122//122
f 127//315 122//310 129//317
f 127//127 122//122 121//121
f 127//315 121//309 122//310
f 110//110 130//130 116//116
f 110//298 116//304 130//318
f 131//131 132//132 133//133
f 131//319 133//321 132//320
f 131//131 133//133 134//134
f 131//319 134//322 133//321
f 133//133 132//132 135//135
f 133//321 135//323 132//320
f 136//136 137//137 138//138
f 136//324 138//326 137//325
f 114//114 113//113 139//139
f 114//302 139//327 113//301
f 124//124 140//140 141//141
f 124//312 141//329 140//328
f 124//124 141//141 121//121
f 124//312 121//309 141//329
f 134//134 116//116 142//142
f 134//322 142//330 116//304
f 134//134 142//142 131//131
f 134//322 131//319 142//330
f 138//138 143//143 144//144
f 138//326 144//332 143//331
f 138//138 144//144 136//136
f 138//326 136//324 144//332
f 145//145 114//114 146//146
f 145//333 146//334 114//302
f 145//145 146//146 147//147
f 145//333 147//335 146//334
f 119//119 125//125 121//121
f 119//307 121//309 125//313
f 119//119 121//121 117//117
f 119//307 117//305 121//309
f 135//135 137//137 136//136
f 135//323 136//324 137//325
f 135//135 136//136 133//133
f 135//323 133//321 136//324
f 139//139 146//146 114//114
f 139//327 114//302 146//334
f 147//147 144//144 143//143
f 147//335 143//331 144//332
f 147//147 143//143 145//145
f 147//335 145//333 143//331
f 130//130 142//142 116//116
f 130//318 116//304 142//330
f 148//148 149//149 150//150
f 148//336 150//338 149//337
f 149//149 151//151 150//150
f 149//337 150//338 151//339
f 150//150 152//152 148//148
f 150//338 148//336 152//340
f 148//148 153//153 154//154
f 148//336 154//342 153//341
f 149//149 155//155 156//156
f 149//337 156//344 155//343
f 155//155 157//157 156//156
f 155//343 156//344 157//345
f 156//156 151//151 149//149
f 156//344 149//337 151//339
f 154//154 158//158 148//148
f 154//342 148//336 158//346
f 152//152 153//153 148//148
f 152//340 148//336 153//341
f 159//159 160//160 161//161
f 159//347 161//349 160//348
f 159//159 161//161 162//162
f 159//347 162//350 161//349
f 163//163 164//164 165//165
f 163//351 165//353 164//352
f 163//163 165//165 166//166
f 163//351 166//354 165//353
f 167//167 168//168 165//165
f 167//355 165//353 168//356
f 167//167 165//165 164//164
f 167//355 164//352 165//353
f 169//169 170//170 168//168
f 169//357 168//356 170//358
f 169//169 168//168 167//167
f 169//357 167//355 168//356
f 171//171 172//172 170//170
f 171//359 170//358 172//360
f 171//171 170//170 169//169
f 171//359 169//357 170//358
f 173//173 174//174 172//172
f 173//361 172//360 174//362
f 173//173 172//172 171//171
f 173//361 171//359 172//360
f 175//175 176//176 174//174
f 175//363 174//362 176//364
f 175//175 174//174 173//173
f 175//363 173//361 174//362
f 177//177 178//178 176//176
f 177//365 176//364 178//366
f 177//177 176//176 175//175
f 177//365 175//363 176//364
f 179//179 180//180 178//178
f 179//367 178//366 180//368
f 179//179 178//178 177//177
f 179//367 177//365 178//366
f 161//161 160//160 180//180
f 161//349 180//368 160//348
f 161//161 180//180 179//179
f 161//349 179//367 180//368
f 181//181 182//182 183//183
f 181//369 183//371 182//370
f 181//181 183//183 184//184
f 181//369 184//372 183//371
f 185//185 186//186 187//187
f 185//373 187//375 186//374
f 185//185 187//187 188//188
f 185//373 188//376 187//375
f 183//183 182//182 187//187
f 183//371 187//375 182//370
f 183//183 187//187 186//186
f 183//371 186//374 187//375
