<svg width="23" height="23" viewBox="0 0 23 23" fill="none" xmlns="http://www.w3.org/2000/svg">
<path fill-rule="evenodd" clip-rule="evenodd" d="M0.880604 10.3887C1.4098 4.94369 5.78313 0.641074 11.2165 0.298828V2.30385C6.90369 2.63781 3.40658 6.03452 2.89208 10.3887H0.880604ZM0.837891 12.0066C1.08881 17.7356 5.58283 22.3482 11.2165 22.7031V20.6981C6.70532 20.3487 3.0866 16.6484 2.84022 12.0066H0.837891ZM20.9914 12.0066C20.7487 16.5797 17.2327 20.239 12.8149 20.6804V22.6887C18.3547 22.2388 22.7458 17.6678 22.9938 12.0066H20.9914ZM22.9511 10.3887C22.4284 5.01056 18.1554 0.746938 12.8149 0.313226V2.32155C17.0356 2.74322 20.4331 6.10193 20.9396 10.3887H22.9511Z" fill="#F6F6F6"/>
<ellipse cx="12.0157" cy="7.15374" rx="3.19683" ry="3.23577" fill="#F6F6F6"/>
<path fill-rule="evenodd" clip-rule="evenodd" d="M10.0328 11.7657L12.0158 15.2421L13.9988 11.7656C16.1097 12.5757 17.6103 14.6416 17.6103 17.0622C17.6103 17.1299 17.6091 17.1974 17.6068 17.2645H6.42489C6.42256 17.1974 6.42139 17.1299 6.42139 17.0622C6.42139 14.6416 7.92191 12.5758 10.0328 11.7657Z" fill="#F6F6F6"/>
</svg>
