<svg width="26" height="24" viewBox="0 0 26 24" fill="none" xmlns="http://www.w3.org/2000/svg">
<path d="M11.1653 21C12.0462 21 12.7603 20.3284 12.7603 19.5C12.7603 18.6716 12.0462 18 11.1653 18C10.2844 18 9.57031 18.6716 9.57031 19.5C9.57031 20.3284 10.2844 21 11.1653 21Z" fill="#F6F6F6"/>
<path d="M18.6087 21C19.4896 21 20.2037 20.3284 20.2037 19.5C20.2037 18.6716 19.4896 18 18.6087 18C17.7278 18 17.0137 18.6716 17.0137 19.5C17.0137 20.3284 17.7278 21 18.6087 21Z" fill="#F6F6F6"/>
<path d="M14.8872 13.9902L19.1405 8.99023H15.9505V4.99023H13.8238V8.99023H10.6338L14.8872 13.9902Z" fill="#F6F6F6"/>
<path d="M18.4067 15H11.3461L6.57173 4.23C6.40985 3.86507 6.13658 3.55344 5.78644 3.33452C5.4363 3.11559 5.02501 2.99918 4.60454 3H2.12695V5H4.60454L9.65543 16.38C9.7352 16.5626 9.87067 16.719 10.0448 16.8293C10.2189 16.9396 10.4238 16.999 10.6337 17H19.1405C19.3547 16.9994 19.5637 16.938 19.7401 16.8238C19.9166 16.7096 20.0523 16.5479 20.1294 16.36L23.1386 9.00001H20.8631L18.4067 15Z" fill="#F6F6F6"/>
</svg>
