<svg width="44" height="44" viewBox="0 0 44 44" fill="none" xmlns="http://www.w3.org/2000/svg">
<g clip-path="url(#clip0_1897_405)">
<path d="M44 22C44 24.9792 43.4175 27.8247 42.2526 30.5365C41.0877 33.2483 39.5217 35.5877 37.5547 37.5547C35.5877 39.5217 33.2483 41.0877 30.5365 42.2526C27.8247 43.4175 24.9792 44 22 44C18.7153 44 15.5929 43.3077 12.6328 41.9232C9.67274 40.5386 7.15191 38.5859 5.07031 36.0651C4.93663 35.8741 4.87457 35.6593 4.88411 35.4206C4.89366 35.1819 4.97483 34.9861 5.1276 34.8333L9.05208 30.8802C9.24306 30.7083 9.48177 30.6224 9.76823 30.6224C10.0738 30.6606 10.2934 30.7752 10.4271 30.9661C11.8212 32.7804 13.5304 34.184 15.5547 35.1771C17.579 36.1701 19.7274 36.6667 22 36.6667C23.9861 36.6667 25.8815 36.2799 27.6862 35.5065C29.4909 34.7331 31.0521 33.6875 32.3698 32.3698C33.6875 31.0521 34.7331 29.4909 35.5065 27.6862C36.2799 25.8815 36.6667 23.9861 36.6667 22C36.6667 20.0139 36.2799 18.1185 35.5065 16.3138C34.7331 14.5091 33.6875 12.9479 32.3698 11.6302C31.0521 10.3125 29.4909 9.26693 27.6862 8.49349C25.8815 7.72005 23.9861 7.33333 22 7.33333C20.1285 7.33333 18.3333 7.67231 16.6146 8.35026C14.8958 9.02821 13.3681 9.9974 12.0312 11.2578L15.9557 15.2109C16.5477 15.7839 16.6814 16.4427 16.3568 17.1875C16.0321 17.9514 15.4688 18.3333 14.6667 18.3333H1.83333C1.33681 18.3333 0.907118 18.1519 0.544271 17.7891C0.181424 17.4262 0 16.9965 0 16.5V3.66667C0 2.86458 0.381944 2.30122 1.14583 1.97656C1.89062 1.65191 2.54948 1.78559 3.1224 2.3776L6.84635 6.07292C8.88976 4.1441 11.2244 2.64974 13.8503 1.58984C16.4761 0.529948 19.1927 0 22 0C24.9792 0 27.8247 0.582465 30.5365 1.7474C33.2483 2.91233 35.5877 4.4783 37.5547 6.44531C39.5217 8.41233 41.0877 10.7517 42.2526 13.4635C43.4175 16.1753 44 19.0208 44 22Z" fill="black"/>
</g>
<defs>
<clipPath id="clip0_1897_405">
<rect width="44" height="44" rx="7" fill="white"/>
</clipPath>
</defs>
</svg>
