<svg width="17" height="17" viewBox="0 0 17 17" fill="none" xmlns="http://www.w3.org/2000/svg">
<path fill-rule="evenodd" clip-rule="evenodd" d="M8.15217 2.53358L7.30839 1.52259C6.91292 1.04235 6.44207 0.660592 5.92296 0.399285C5.40384 0.137978 4.84671 0.00228887 4.28365 2.87085e-05C3.72059 -0.00223145 3.16271 0.128983 2.64215 0.386116C2.12158 0.643249 1.64861 1.02122 1.25046 1.49827C0.852316 1.97532 0.536858 2.54203 0.322254 3.16575C0.107649 3.78948 -0.00186238 4.45791 2.39602e-05 5.13256C0.0019103 5.80721 0.115157 6.47474 0.333245 7.09674C0.551332 7.71873 0.869952 8.28288 1.27076 8.75673L8.13199 16.9777L8.13354 16.9758L8.15373 17L15.015 8.77905C15.4158 8.30521 15.7344 7.74105 15.9525 7.11906C16.1706 6.49707 16.2838 5.82953 16.2857 5.15488C16.2876 4.48024 16.1781 3.8118 15.9635 3.18808C15.7489 2.56435 15.4334 1.99764 15.0353 1.52059C14.6371 1.04354 14.1641 0.665571 13.6436 0.408438C13.123 0.151304 12.5651 0.0200903 12.0021 0.0223505C11.439 0.0246106 10.8819 0.1603 10.3628 0.421607C9.84364 0.682914 9.37279 1.06468 8.97732 1.54491L8.15217 2.53358ZM8.13354 14.3456L11.9651 9.75377L13.0906 8.45166H13.0922L13.9173 7.46392C14.4269 6.85341 14.7131 6.02538 14.7131 5.16198C14.7131 4.29859 14.4269 3.47055 13.9173 2.86004C13.4078 2.24953 12.7167 1.90655 11.9961 1.90655C11.2755 1.90655 10.5845 2.24953 10.0749 2.86004L8.15295 5.16384L8.14752 5.15733L6.21078 2.83865C5.70125 2.22814 5.01017 1.88515 4.28958 1.88515C3.56898 1.88515 2.8779 2.22814 2.36837 2.83865C1.85883 3.44916 1.57258 4.27719 1.57258 5.14059C1.57258 6.00398 1.85883 6.83202 2.36837 7.44253L4.34003 9.80492L4.34081 9.80213L8.13354 14.3456Z" fill="#F6F6F6"/>
</svg>
