<svg width="14" height="14" viewBox="0 0 14 14" fill="none" xmlns="http://www.w3.org/2000/svg">
<path d="M6.3 10.5H7.7V6.3H6.3V10.5ZM7 4.9C7.19833 4.9 7.3647 4.8328 7.4991 4.6984C7.6335 4.564 7.70047 4.39787 7.7 4.2C7.7 4.00167 7.6328 3.83553 7.4984 3.7016C7.364 3.56767 7.19787 3.50047 7 3.5C6.80167 3.5 6.63553 3.5672 6.5016 3.7016C6.36767 3.836 6.30047 4.00213 6.3 4.2C6.3 4.39833 6.3672 4.5647 6.5016 4.6991C6.636 4.8335 6.80213 4.90047 7 4.9ZM7 14C6.03167 14 5.12167 13.8161 4.27 13.4484C3.41833 13.0807 2.6775 12.582 2.0475 11.9525C1.4175 11.3225 0.918867 10.5817 0.5516 9.73C0.184333 8.87833 0.000466667 7.96833 0 7C0 6.03167 0.183867 5.12167 0.5516 4.27C0.919333 3.41833 1.41797 2.6775 2.0475 2.0475C2.6775 1.4175 3.41833 0.918867 4.27 0.5516C5.12167 0.184333 6.03167 0.000466667 7 0C7.96833 0 8.87833 0.183867 9.73 0.5516C10.5817 0.919333 11.3225 1.41797 11.9525 2.0475C12.5825 2.6775 13.0814 3.41833 13.4491 4.27C13.8168 5.12167 14.0005 6.03167 14 7C14 7.96833 13.8161 8.87833 13.4484 9.73C13.0807 10.5817 12.582 11.3225 11.9525 11.9525C11.3225 12.5825 10.5817 13.0814 9.73 13.4491C8.87833 13.8168 7.96833 14.0005 7 14ZM7 12.6C8.56333 12.6 9.8875 12.0575 10.9725 10.9725C12.0575 9.8875 12.6 8.56333 12.6 7C12.6 5.43667 12.0575 4.1125 10.9725 3.0275C9.8875 1.9425 8.56333 1.4 7 1.4C5.43667 1.4 4.1125 1.9425 3.0275 3.0275C1.9425 4.1125 1.4 5.43667 1.4 7C1.4 8.56333 1.9425 9.8875 3.0275 10.9725C4.1125 12.0575 5.43667 12.6 7 12.6Z" fill="#F6F6F6"/>
</svg>
