<svg width="45" height="66" viewBox="0 0 45 66" fill="none" xmlns="http://www.w3.org/2000/svg">
<path d="M0.5 3C0.5 1.61929 1.61929 0.5 3 0.5H30C38.0081 0.5 44.5 6.99187 44.5 15V51C44.5 59.0081 38.0081 65.5 30 65.5H3C1.61929 65.5 0.5 64.3807 0.5 63V3Z" fill="#DFB006" stroke="#DFB006"/>
<path d="M37 43.266L29.8308 40.8L27.3635 48L21.857 37.2L16.6365 48L14.1693 40.8L7 43.266L12.2205 32.466C10.4451 30.2344 9.47999 27.4592 9.4851 24.6C9.4851 21.2583 10.8036 18.0534 13.1506 15.6905C15.4976 13.3275 18.6808 12 22 12C25.3192 12 28.5024 13.3275 30.8494 15.6905C33.1964 18.0534 34.5149 21.2583 34.5149 24.6C34.5149 27.57 33.4958 30.306 31.7795 32.466L37 43.266ZM13.0608 24.6L17.8701 27.012L17.5304 32.412L22 29.424L26.4696 32.394L26.1657 27.012L30.9392 24.6L26.1478 22.17L26.4696 16.806L22 19.758L17.5304 16.77L17.8343 22.188L13.0608 24.6Z" fill="black"/>
</svg>
