<svg width="27" height="30" viewBox="0 0 27 30" fill="none" xmlns="http://www.w3.org/2000/svg">
<path d="M16.7536 1.65039V21.7062M20.6605 10.9069V12.4497M12.8466 10.9069V12.4497M23.7861 1.65039H9.72099C9.30652 1.65039 8.90901 1.81293 8.61593 2.10225C8.32285 2.39158 8.1582 2.78398 8.1582 3.19315V20.1634C8.1582 20.5726 8.32285 20.965 8.61593 21.2543C8.90901 21.5437 9.30652 21.7062 9.72099 21.7062H23.7861C24.2006 21.7062 24.5981 21.5437 24.8912 21.2543C25.1842 20.965 25.3489 20.5726 25.3489 20.1634V3.19315C25.3489 2.78398 25.1842 2.39158 24.8912 2.10225C24.5981 1.81293 24.2006 1.65039 23.7861 1.65039Z" stroke="#F6F6F6" stroke-width="2" stroke-linecap="round" stroke-linejoin="round"/>
<path d="M3 1L0.979274 4.5H5.02073L3 1ZM3 22.4884L5.02073 18.9884H0.979274L3 22.4884ZM2.65 4.15V19.3384H3.35V4.15H2.65Z" fill="#F6F6F6"/>
<path d="M26 27L22.5 24.9793L22.5 29.0207L26 27ZM7.76744 27L11.2674 29.0207L11.2674 24.9793L7.76744 27ZM22.85 26.65L10.9174 26.65L10.9174 27.35L22.85 27.35L22.85 26.65Z" fill="#F6F6F6"/>
</svg>
