<svg width="20" height="22" viewBox="0 0 20 22" fill="none" xmlns="http://www.w3.org/2000/svg">
<path fill-rule="evenodd" clip-rule="evenodd" d="M8.08744 0H11.9126C13.6223 0 14.9767 0 16.0363 0.156558C17.1265 0.318233 18.0093 0.657954 18.706 1.42335C19.4019 2.18977 19.7107 3.16084 19.8577 4.36009C20 5.5266 20 7.01544 20 8.89619V11.0573C20 12.938 20 14.4279 19.8577 15.5934C19.7107 16.7927 19.4019 17.7637 18.706 18.5301C18.2744 19.0049 17.7712 19.316 17.1907 19.5227C17.2028 19.578 17.2093 19.6373 17.2093 19.6977V21.2326C17.2093 21.4361 17.1358 21.6313 17.005 21.7752C16.8741 21.9191 16.6967 22 16.5116 22C16.3266 22 16.1491 21.9191 16.0183 21.7752C15.8875 21.6313 15.814 21.4361 15.814 21.2326V19.8266C14.7888 19.9535 13.5051 19.9535 11.9126 19.9535H8.08744C6.49488 19.9535 5.21116 19.9535 4.18605 19.8266V21.2326C4.18605 21.4361 4.11254 21.6313 3.9817 21.7752C3.85086 21.9191 3.67341 22 3.48837 22C3.30334 22 3.12588 21.9191 2.99504 21.7752C2.8642 21.6313 2.7907 21.4361 2.7907 21.2326V19.6977C2.7907 19.6363 2.79721 19.578 2.8093 19.5217C2.22884 19.316 1.72558 19.0049 1.29395 18.5291C0.59814 17.7637 0.289302 16.7927 0.142326 15.5934C0 14.4269 0 12.938 0 11.0573V8.89619C0 7.01544 0 5.52558 0.142326 4.36009C0.289302 3.16084 0.59814 2.18977 1.29395 1.42335C1.9907 0.657954 2.87349 0.318233 3.96372 0.156558C5.02419 0 6.37767 0 8.08744 0ZM10.6977 18.4186H11.8605C13.6344 18.4186 14.8949 18.4166 15.8512 18.2754C16.786 18.1372 17.3256 17.8773 17.7191 17.4445C18.1126 17.0116 18.3488 16.4181 18.4744 15.3887C18.6028 14.3368 18.6047 12.9513 18.6047 11V8.95349C18.6047 7.00214 18.6028 5.61665 18.4744 4.56372C18.3488 3.53535 18.1126 2.94186 17.7191 2.50902C17.3256 2.07619 16.786 1.81628 15.8502 1.67814C14.8949 1.53693 13.6344 1.53488 11.8605 1.53488H10.6977V18.4186ZM9.30233 1.53488V18.4186H8.13953C6.36558 18.4186 5.10605 18.4166 4.14884 18.2754C3.21395 18.1372 2.67442 17.8773 2.28093 17.4445C1.88744 17.0116 1.65116 16.4181 1.52558 15.3887C1.39721 14.3368 1.39535 12.9513 1.39535 11V8.95349C1.39535 7.00214 1.39721 5.61665 1.52558 4.56372C1.65116 3.53535 1.88744 2.94186 2.28093 2.50902C2.67442 2.07619 3.21395 1.81628 4.14977 1.67814C5.10605 1.53693 6.36558 1.53488 8.13953 1.53488H9.30233ZM7.2093 7.16279C7.39434 7.16279 7.57179 7.24365 7.70263 7.38757C7.83347 7.53149 7.90698 7.72669 7.90698 7.93023V12.0233C7.90698 12.2268 7.83347 12.422 7.70263 12.5659C7.57179 12.7098 7.39434 12.7907 7.2093 12.7907C7.02427 12.7907 6.84681 12.7098 6.71597 12.5659C6.58513 12.422 6.51163 12.2268 6.51163 12.0233V7.93023C6.51163 7.72669 6.58513 7.53149 6.71597 7.38757C6.84681 7.24365 7.02427 7.16279 7.2093 7.16279ZM12.7907 7.16279C12.9757 7.16279 13.1532 7.24365 13.284 7.38757C13.4149 7.53149 13.4884 7.72669 13.4884 7.93023V12.0233C13.4884 12.2268 13.4149 12.422 13.284 12.5659C13.1532 12.7098 12.9757 12.7907 12.7907 12.7907C12.6057 12.7907 12.4282 12.7098 12.2974 12.5659C12.1665 12.422 12.093 12.2268 12.093 12.0233V7.93023C12.093 7.72669 12.1665 7.53149 12.2974 7.38757C12.4282 7.24365 12.6057 7.16279 12.7907 7.16279Z" fill="#F6F6F6"/>
</svg>
