<svg width="40" height="23" viewBox="0 0 40 23" fill="none" xmlns="http://www.w3.org/2000/svg">
<path d="M24 1.00268e-07C24.5046 -0.000159579 24.9906 0.190406 25.3605 0.533497C25.7305 0.876588 25.9572 1.34684 25.995 1.85L26 2V18C26.0002 18.5046 25.8096 18.9906 25.4665 19.3605C25.1234 19.7305 24.6532 19.9572 24.15 19.995L24 20H12C11.4954 20.0002 11.0094 19.8096 10.6395 19.4665C10.2695 19.1234 10.0428 18.6532 10.005 18.15L10 18V2C9.99984 1.49542 10.1904 1.00943 10.5335 0.639452C10.8766 0.269471 11.3468 0.0428434 11.85 0.00500021L12 1.00268e-07H24ZM24 15.5H19V18H24V15.5ZM17 2H12V18H17V2ZM24 11H19V13.5H24V11ZM15 9C15.2549 9.00028 15.5 9.09788 15.6854 9.27285C15.8707 9.44782 15.9822 9.68695 15.9972 9.94139C16.0121 10.1958 15.9293 10.4464 15.7657 10.6418C15.6021 10.8373 15.3701 10.9629 15.117 10.993L15 11H14C13.7451 10.9997 13.5 10.9021 13.3146 10.7272C13.1293 10.5522 13.0178 10.313 13.0028 10.0586C12.9879 9.80416 13.0707 9.55362 13.2343 9.35817C13.3979 9.16271 13.6299 9.0371 13.883 9.007L14 9H15ZM24 6.5H19V9H24V6.5ZM24 2H19V4.5H24V2Z" fill="#F6F6F6"/>
<path fill-rule="evenodd" clip-rule="evenodd" d="M7.5 14.4126C2.92769 15.2964 0 16.6544 0 18.1774C0 20.8409 8.9543 23 20 23C31.0457 23 40 20.8409 40 18.1774C40 16.3924 35.978 14.8338 30 14V15.0099C31.434 15.2137 32.7467 15.4595 33.9077 15.7395C35.6767 16.166 37.0381 16.6588 37.933 17.169C38.9056 17.7234 39 18.1012 39 18.1774C39 18.2536 38.9056 18.6314 37.933 19.1858C37.0381 19.696 35.6767 20.1888 33.9077 20.6154C30.3854 21.4647 25.4678 22 20 22C14.5322 22 9.61457 21.4647 6.09228 20.6154C4.32327 20.1888 2.96187 19.696 2.06696 19.1858C1.09443 18.6314 1 18.2536 1 18.1774C1 18.1012 1.09443 17.7234 2.06696 17.169C2.96187 16.6588 4.32327 16.166 6.09228 15.7395C6.53959 15.6316 7.00941 15.5288 7.5 15.4315V14.4126Z" fill="#F6F6F6"/>
<path d="M28 14L30.1684 15.9056L30.7345 13.0749L28 14ZM33.049 14.7549L30.2553 14.1961L30.1573 14.6864L32.951 15.2451L33.049 14.7549Z" fill="#F6F6F6"/>
</svg>
