<svg width="30" height="23" viewBox="0 0 30 23" fill="none" xmlns="http://www.w3.org/2000/svg">
<g filter="url(#filter0_d_143_1500)">
<path d="M24.8264 1.64381L15.0719 14.7173C15.0052 14.8069 14.9259 14.878 14.8387 14.9265C14.7515 14.975 14.6579 15 14.5635 15C14.469 15 14.3755 14.975 14.2883 14.9265C14.201 14.878 14.1218 14.8069 14.0551 14.7173L4.30056 1.64381C4.19987 1.5092 4.13128 1.33757 4.10346 1.15065C4.07565 0.963732 4.08987 0.769953 4.14433 0.593882C4.19878 0.417811 4.29102 0.267378 4.40934 0.16165C4.52767 0.0559214 4.66675 -0.00033963 4.80896 1.77283e-06L24.318 6.30465e-08C24.4602 -0.000341365 24.5993 0.0559197 24.7176 0.161648C24.8359 0.267376 24.9282 0.417809 24.9826 0.593881C25.0371 0.769951 25.0513 0.96373 25.0235 1.15065C24.9957 1.33756 24.9271 1.5092 24.8264 1.64381Z" fill="#456779"/>
</g>
<defs>
<filter id="filter0_d_143_1500" x="0.0895996" y="0" width="28.9478" height="23" filterUnits="userSpaceOnUse" color-interpolation-filters="sRGB">
<feFlood flood-opacity="0" result="BackgroundImageFix"/>
<feColorMatrix in="SourceAlpha" type="matrix" values="0 0 0 0 0 0 0 0 0 0 0 0 0 0 0 0 0 0 127 0" result="hardAlpha"/>
<feOffset dy="4"/>
<feGaussianBlur stdDeviation="2"/>
<feComposite in2="hardAlpha" operator="out"/>
<feColorMatrix type="matrix" values="0 0 0 0 0 0 0 0 0 0 0 0 0 0 0 0 0 0 0.25 0"/>
<feBlend mode="normal" in2="BackgroundImageFix" result="effect1_dropShadow_143_1500"/>
<feBlend mode="normal" in="SourceGraphic" in2="effect1_dropShadow_143_1500" result="shape"/>
</filter>
</defs>
</svg>
