<svg width="23" height="29" viewBox="0 0 23 29" fill="none" xmlns="http://www.w3.org/2000/svg">
<g filter="url(#filter0_d_143_1504)">
<path d="M17.3562 20.7885L4.28275 11.0097C4.19312 10.9428 4.12201 10.8634 4.07349 10.7759C4.02497 10.6884 4 10.5947 4 10.5C4 10.4053 4.02497 10.3116 4.07349 10.2241C4.12201 10.1366 4.19312 10.0572 4.28275 9.99033L17.3562 0.211493C17.4908 0.110556 17.6624 0.0417883 17.8494 0.0139047C18.0363 -0.0139788 18.23 0.000278643 18.4061 0.0548708C18.5822 0.109463 18.7326 0.201929 18.8384 0.320549C18.9441 0.439169 19.0003 0.578602 19 0.721167L19 20.2788C19.0003 20.4214 18.9441 20.5608 18.8384 20.6795C18.7326 20.7981 18.5822 20.8905 18.4061 20.9451C18.23 20.9997 18.0363 21.014 17.8494 20.9861C17.6624 20.9582 17.4908 20.8894 17.3562 20.7885Z" fill="#F6F6F6"/>
</g>
<defs>
<filter id="filter0_d_143_1504" x="0" y="0" width="23" height="29" filterUnits="userSpaceOnUse" color-interpolation-filters="sRGB">
<feFlood flood-opacity="0" result="BackgroundImageFix"/>
<feColorMatrix in="SourceAlpha" type="matrix" values="0 0 0 0 0 0 0 0 0 0 0 0 0 0 0 0 0 0 127 0" result="hardAlpha"/>
<feOffset dy="4"/>
<feGaussianBlur stdDeviation="2"/>
<feComposite in2="hardAlpha" operator="out"/>
<feColorMatrix type="matrix" values="0 0 0 0 0 0 0 0 0 0 0 0 0 0 0 0 0 0 0.25 0"/>
<feBlend mode="normal" in2="BackgroundImageFix" result="effect1_dropShadow_143_1504"/>
<feBlend mode="normal" in="SourceGraphic" in2="effect1_dropShadow_143_1504" result="shape"/>
</filter>
</defs>
</svg>
