<?xml version="1.0" standalone="no"?>
<!DOCTYPE svg PUBLIC "-//W3C//DTD SVG 20010904//EN"
 "http://www.w3.org/TR/2001/REC-SVG-20010904/DTD/svg10.dtd">
<svg version="1.0" xmlns="http://www.w3.org/2000/svg"
 width="426.000000pt" height="261.000000pt" viewBox="0 0 426.000000 261.000000"
 preserveAspectRatio="xMidYMid meet">

<g transform="translate(0.000000,261.000000) scale(0.100000,-0.100000)"
fill="#000000" stroke="none">
<path d="M2750 2189 c-11 -8 -12 -12 -2 -16 7 -3 12 -23 12 -49 0 -24 5 -44
10 -44 6 0 10 27 10 60 0 61 -4 68 -30 49z"/>
<path d="M875 2179 c-11 -16 3 -23 19 -10 8 7 20 10 26 6 19 -12 10 -35 -17
-46 -29 -11 -43 -26 -43 -46 0 -9 15 -13 48 -12 33 2 38 3 17 6 -47 7 -51 20
-11 39 37 18 46 40 24 62 -15 15 -55 16 -63 1z"/>
<path d="M1030 2045 l0 -24 -122 -4 -123 -3 122 -2 c117 -2 122 -3 126 -24 2
-13 5 1 6 30 0 28 -1 52 -4 52 -3 0 -5 -11 -5 -25z"/>
<path d="M2760 2030 l-545 -5 548 -3 c359 -1 547 1 547 8 0 6 -1 9 -2 8 -2 -2
-248 -5 -548 -8z"/>
<path d="M790 1315 l0 -635 1400 0 1400 0 -2 633 -3 632 -1397 3 -1398 2 0
-635z m2788 -2 l2 -623 -1390 0 -1390 0 0 625 0 625 1388 -2 1387 -3 3 -622z"/>
<path d="M1030 1655 l0 -95 95 0 95 0 0 95 0 95 -95 0 -95 0 0 -95z m178 3
l-3 -83 -82 -3 -83 -3 0 86 0 85 85 0 86 0 -3 -82z"/>
<path d="M1103 1675 c-17 -18 -16 -22 5 -45 17 -18 18 -18 39 4 22 22 22 23 2
39 -23 20 -30 21 -46 2z"/>
<path d="M2120 1655 l0 -95 95 0 95 0 0 95 0 95 -95 0 -95 0 0 -95z m178 3
l-3 -83 -82 -3 -83 -3 0 86 0 85 85 0 86 0 -3 -82z"/>
<path d="M2210 1680 c0 -5 -7 -10 -15 -10 -8 0 -15 -7 -15 -15 0 -8 7 -15 15
-15 8 0 15 -7 15 -16 0 -13 5 -11 24 7 24 23 24 24 6 41 -22 20 -30 22 -30 8z"/>
<path d="M3210 1655 l0 -95 95 0 95 0 0 95 0 95 -95 0 -95 0 0 -95z m178 3
l-3 -83 -82 -3 -83 -3 0 86 0 85 85 0 86 0 -3 -82z"/>
<path d="M3300 1680 c0 -5 -7 -10 -15 -10 -8 0 -15 -7 -15 -15 0 -8 7 -15 15
-15 8 0 15 -7 15 -16 0 -13 5 -11 24 7 24 23 24 24 6 41 -22 20 -30 22 -30 8z"/>
<path d="M1030 965 l0 -96 93 3 92 3 3 93 3 92 -96 0 -95 0 0 -95z m180 5 l0
-80 -85 0 -85 0 0 80 0 80 85 0 85 0 0 -80z"/>
<path d="M1107 990 c-16 -19 -16 -21 0 -40 21 -24 33 -26 33 -5 0 8 7 15 15
15 8 0 15 5 15 10 0 6 -7 10 -15 10 -8 0 -15 7 -15 15 0 21 -12 19 -33 -5z"/>
<path d="M2120 965 l0 -96 93 3 92 3 3 93 3 92 -96 0 -95 0 0 -95z m180 5 l0
-80 -85 0 -85 0 0 80 0 80 85 0 85 0 0 -80z"/>
<path d="M2210 995 c0 -8 -7 -15 -15 -15 -8 0 -15 -4 -15 -10 0 -5 7 -10 15
-10 8 0 15 -7 15 -15 0 -8 5 -15 10 -15 6 0 10 7 10 15 0 8 7 15 15 15 8 0 15
5 15 10 0 6 -7 10 -15 10 -8 0 -15 7 -15 15 0 8 -4 15 -10 15 -5 0 -10 -7 -10
-15z"/>
<path d="M3210 965 l0 -95 95 0 95 0 0 95 0 95 -95 0 -95 0 0 -95z m180 5 l0
-80 -85 0 -85 0 0 80 0 80 85 0 85 0 0 -80z"/>
<path d="M3300 995 c0 -8 -7 -15 -15 -15 -8 0 -15 -4 -15 -10 0 -5 7 -10 15
-10 8 0 15 -7 15 -15 0 -8 5 -15 10 -15 6 0 10 7 10 15 0 8 7 15 15 15 8 0 15
5 15 10 0 6 -7 10 -15 10 -8 0 -15 7 -15 15 0 8 -4 15 -10 15 -5 0 -10 -7 -10
-15z"/>
<path d="M712 1848 l-2 -97 -27 -4 c-16 -2 -3 -4 27 -4 30 0 45 2 33 4 -21 4
-22 10 -26 101 l-3 97 -2 -97z"/>
<path d="M580 1885 c-11 -13 -8 -15 20 -13 19 2 35 -2 37 -9 3 -8 -4 -13 -16
-13 -12 0 -21 -4 -21 -10 0 -5 9 -10 20 -10 24 0 27 -28 4 -37 -8 -3 -20 -1
-27 6 -16 16 -27 14 -20 -5 4 -10 16 -14 42 -12 35 3 36 4 37 48 1 25 -3 51
-9 58 -13 17 -52 15 -67 -3z"/>
<path d="M712 788 c-2 -91 -3 -97 -24 -101 -13 -2 0 -4 27 -4 28 0 40 2 28 4
-21 4 -22 10 -26 101 l-3 97 -2 -97z"/>
<path d="M580 806 c0 -18 7 -25 30 -29 18 -4 30 -13 30 -22 0 -21 -27 -30 -45
-15 -22 18 -29 6 -10 -14 21 -20 39 -20 59 0 28 27 12 64 -26 64 -29 0 -21 28
10 33 22 3 20 4 -10 6 -34 1 -38 -2 -38 -23z"/>
<path d="M1030 635 l0 -24 -122 -4 -123 -3 122 -2 c117 -2 122 -3 126 -24 2
-13 5 1 6 30 0 28 -1 52 -4 52 -3 0 -5 -11 -5 -25z"/>
<path d="M886 506 c-34 -45 -33 -56 4 -56 22 0 30 -5 31 -17 0 -14 2 -15 6 -3
3 8 11 19 17 23 8 6 7 10 -1 14 -7 2 -13 20 -13 39 0 43 -11 43 -44 0z m34
-16 c0 -14 -7 -20 -22 -20 -20 0 -21 1 -3 20 10 11 20 20 22 20 1 0 3 -9 3
-20z"/>
</g>
</svg>
