{"accessors":[{"bufferView":0,"byteOffset":0,"componentType":5126,"count":12508,"max":[136.0,9.999999747378752e-06,8.0],"min":[-8.0,-32.0,-8.0],"type":"VEC3"},{"bufferView":1,"byteOffset":0,"componentType":5126,"count":12508,"max":[1.0,1.0,1.0],"min":[-1.0,-1.0,-1.0],"type":"VEC3"},{"bufferView":2,"byteOffset":0,"componentType":5126,"count":12508,"max":[1.0,1.0],"min":[0.0,0.0],"type":"VEC2"},{"bufferView":3,"byteOffset":0,"componentType":5125,"count":159,"type":"SCALAR"},{"bufferView":4,"byteOffset":0,"componentType":5125,"count":681,"type":"SCALAR"},{"bufferView":5,"byteOffset":0,"componentType":5125,"count":36174,"type":"SCALAR"}],"asset":{"copyright":"KiM GmbH","generator":"CADClick","version":"2.0"},"bufferViews":[{"buffer":0,"byteLength":150096,"byteOffset":0},{"buffer":0,"byteLength":150096,"byteOffset":150096},{"buffer":0,"byteLength":100064,"byteOffset":300192},{"buffer":0,"byteLength":636,"byteOffset":400256},{"buffer":0,"byteLength":2724,"byteOffset":400892},{"buffer":0,"byteLength":144696,"byteOffset":403616}],"buffers":[{"byteLength":548312,"uri":"data:application/octet-stream;base64,"}],"materials":[{"alphaMode":"OPAQUE","doubleSided":true,"name":"M_dAA0000_0_0","pbrMetallicRoughness":{"baseColorFactor":[0.40197786688804626,0.0,0.0,1.0],"metallicFactor":1.0,"roughnessFactor":0.0}},{"alphaMode":"OPAQUE","doubleSided":true,"name":"M_dC0C0C0_0_0","pbrMetallicRoughness":{"baseColorFactor":[0.5271153450012207,0.5271153450012207,0.5271153450012207,1.0],"metallicFactor":1.0,"roughnessFactor":0.0}},{"alphaMode":"OPAQUE","doubleSided":true,"name":"M_d751515_0_0","pbrMetallicRoughness":{"baseColorFactor":[0.17788846790790558,0.007499031722545624,0.007499031722545624,1.0],"metallicFactor":1.0,"roughnessFactor":0.0}}],"meshes":[{"primitives":[{"attributes":{"NORMAL":1,"POSITION":0,"TEXCOORD_0":2},"indices":3,"material":0,"mode":4},{"attributes":{"NORMAL":1,"POSITION":0,"TEXCOORD_0":2},"indices":4,"material":1,"mode":4},{"attributes":{"NORMAL":1,"POSITION":0,"TEXCOORD_0":2},"indices":5,"material":2,"mode":4}]}],"nodes":[{"children":[1]},{"mesh":0,"name":"00010104_202406100955260107_0001"}],"scene":0,"scenes":[{"name":"106_61_123_1","nodes":[0]}]}